<?xml version="1.0" encoding="UTF-8" standalone="no"?>
<svg
   xmlns:dc="http://purl.org/dc/elements/1.1/"
   xmlns:cc="http://creativecommons.org/ns#"
   xmlns:rdf="http://www.w3.org/1999/02/22-rdf-syntax-ns#"
   xmlns:svg="http://www.w3.org/2000/svg"
   xmlns="http://www.w3.org/2000/svg"
   viewBox="0 0 408.116 359.77332"
   height="359.77332"
   width="408.116"
   xml:space="preserve"
   id="svg2"
   version="1.1"><metadata
     id="metadata8"><rdf:RDF><cc:Work
         rdf:about=""><dc:format>image/svg+xml</dc:format><dc:type
           rdf:resource="http://purl.org/dc/dcmitype/StillImage" /></cc:Work></rdf:RDF></metadata><defs
     id="defs6"><clipPath
       id="clipPath18"
       clipPathUnits="userSpaceOnUse"><path
         id="path16"
         d="M 0,269.83 H 306.087 V 0 H 0 Z" /></clipPath></defs><g
     transform="matrix(1.3333333,0,0,-1.3333333,0,359.77333)"
     id="g10"><g
       id="g12"><g
         clip-path="url(#clipPath18)"
         id="g14"><g
           transform="translate(1e-4,249.8299)"
           id="g20"><path
             id="path22"
             style="fill:#ffffff;fill-opacity:1;fill-rule:nonzero;stroke:none"
             d="m 0,0 v -229.83 c 0,-11.046 8.954,-20 20,-20 h 137.315 c 103.775,0 148.771,58.116 148.771,135.183 C 306.086,-37.886 261.09,20 157.315,20 H 20 C 8.954,20 0,11.046 0,0" /></g><g
           transform="translate(91.8751,213.3963)"
           id="g24"><path
             id="path26"
             style="fill:#cc0066;fill-opacity:1;fill-rule:nonzero;stroke:none"
             d="m 0,0 v -169.763 h 73.905 c 67.136,0 96.246,37.934 96.246,91.455 0,51.266 -29.11,91.108 -96.246,91.108 L 12.8,12.8 C 5.731,12.8 0,7.069 0,0" /></g><g
           transform="translate(37.8551,245.0594)"
           id="g28"><path
             id="path30"
             style="fill:#000000;fill-opacity:1;fill-rule:nonzero;stroke:none"
             d="m 0,0 c -7.059,0 -12.801,-5.742 -12.801,-12.801 v -194.687 c 0,-7.059 5.742,-12.801 12.801,-12.801 h 119.434 c 79.824,0 123.789,39.211 123.789,110.408 C 243.223,-14.275 165.664,0 119.434,0 Z M 119.434,-226.687 H 0 c -10.586,0 -19.199,8.613 -19.199,19.199 v 194.687 c 0,10.588 8.613,19.199 19.199,19.199 h 119.434 c 113.273,0 130.187,-72.851 130.187,-116.279 0,-75.326 -46.234,-116.806 -130.187,-116.806" /></g><g
           transform="translate(117.2711,124.9471)"
           id="g32"><path
             id="path34"
             style="fill:#ffffff;fill-opacity:1;fill-rule:nonzero;stroke:none"
             d="m 0,0 c 1.285,0 2.535,0.211 3.75,0.625 1.211,0.418 2.289,1.109 3.234,2.074 0.95,0.965 1.707,2.223 2.274,3.778 0.566,1.55 0.851,3.445 0.851,5.679 0,2.047 -0.199,3.891 -0.593,5.539 C 9.117,19.344 8.465,20.754 7.555,21.926 6.645,23.098 5.441,24 3.949,24.625 2.449,25.25 0.605,25.562 -1.59,25.562 H -7.953 L -7.953,0 Z m 0.625,33.059 c 2.613,0 5.047,-0.418 7.297,-1.25 2.254,-0.832 4.203,-2.082 5.851,-3.747 1.649,-1.667 2.934,-3.75 3.864,-6.25 0.925,-2.5 1.39,-5.433 1.39,-8.804 0,-2.953 -0.379,-5.68 -1.136,-8.18 C 17.133,2.332 15.988,0.172 14.457,-1.645 12.922,-3.465 11.008,-4.895 8.719,-5.934 6.426,-6.977 3.73,-7.496 0.625,-7.496 h -17.496 v 40.555 z" /></g><g
           transform="translate(172.5348,158.0057)"
           id="g36"><path
             id="path38"
             style="fill:#ffffff;fill-opacity:1;fill-rule:nonzero;stroke:none"
             d="m 0,0 v -7.496 h -21.412 v -8.691 h 19.65 v -6.93 h -19.65 v -9.942 H 0.453 v -7.496 H -30.33 l 0,40.555 z" /></g><g
           transform="translate(203.5934,133.1268)"
           id="g40"><path
             id="path42"
             style="fill:#ffffff;fill-opacity:1;fill-rule:nonzero;stroke:none"
             d="M 0,0 -5.113,14.883 H -5.227 L -10.508,0 Z M -0.512,24.879 14.652,-15.676 H 5.395 L 2.328,-6.645 H -12.84 l -3.18,-9.031 h -8.972 l 15.336,40.555 z" /></g><g
           transform="translate(232.7692,158.0057)"
           id="g44"><path
             id="path46"
             style="fill:#ffffff;fill-opacity:1;fill-rule:nonzero;stroke:none"
             d="m 0,0 v -33.059 h 19.766 v -7.496 H -8.918 l 0,40.555 z" /></g><g
           transform="translate(77.1842,137.7284)"
           id="g48"><path
             id="path50"
             style="fill:#000000;fill-opacity:1;fill-rule:nonzero;stroke:none"
             d="m 0,0 c 0,-10.333 -8.376,-18.709 -18.708,-18.709 -10.333,0 -18.709,8.376 -18.709,18.709 0,10.332 8.376,18.708 18.709,18.708 C -8.376,18.708 0,10.332 0,0" /></g><g
           transform="translate(72.649,43.6336)"
           id="g52"><path
             id="path54"
             style="fill:#000000;fill-opacity:1;fill-rule:nonzero;stroke:none"
             d="m 0,0 v 0 c -15.655,0 -28.347,12.691 -28.347,28.347 v 22.11 c 0,7.827 6.346,14.173 14.174,14.173 C -6.346,64.63 0,58.284 0,50.457 Z" /></g></g></g></g></svg>