<svg xmlns="http://www.w3.org/2000/svg" xmlns:xlink="http://www.w3.org/1999/xlink" version="1.1" x="0px" y="0px" viewBox="0 0 100 100" enable-background="new 0 0 100 100" xml:space="preserve"><g><path d="M49.5,38c0-1.3-1.1-2.4-2.4-2.4h-30c-1.3,0-2.4,1.1-2.4,2.4s1.1,2.4,2.4,2.4h30C48.5,40.4,49.5,39.3,49.5,38z"/><path d="M45.6,49.5c0-1.3-1.1-2.4-2.4-2.4H27.4c-1.3,0-2.4,1.1-2.4,2.4s1.1,2.4,2.4,2.4h15.8C44.6,51.9,45.6,50.8,45.6,49.5z"/><path d="M69.1,24.1H7.4c-1.3,0-2.4,1.1-2.4,2.4s1.1,2.4,2.4,2.4h61.8c11.7,0,21.1,9.5,21.1,21.1s-9.5,21.1-21.1,21.1   c-7.9,0-15.1-4.4-18.8-11.4c-0.4-0.8-1.2-1.3-2.1-1.3H36c-1.3,0-2.4,1.1-2.4,2.4s1.1,2.4,2.4,2.4h10.8c4.6,7.9,13.1,12.8,22.3,12.8   C83.4,75.9,95,64.3,95,50S83.4,24.1,69.1,24.1z"/><path d="M69.1,33.1c-1.4,0-2.6,1.2-2.6,2.6v14.8c0,0,0,0,0,0c0,0.2,0,0.3,0,0.5c0,0,0,0,0,0c0,0.2,0.1,0.3,0.1,0.5c0,0,0,0,0,0   c0.1,0.1,0.1,0.3,0.2,0.4c0,0,0,0,0,0c0.1,0.1,0.2,0.3,0.3,0.4c0,0,0,0,0,0l6.6,6.6c0.5,0.5,1.2,0.8,1.8,0.8c0.7,0,1.3-0.3,1.8-0.8   c1-1,1-2.7,0-3.7l-5.9-5.9V35.7C71.7,34.3,70.6,33.1,69.1,33.1z"/></g></svg>