<svg xmlns:dc="http://purl.org/dc/elements/1.1/" xmlns:cc="http://creativecommons.org/ns#" xmlns:rdf="http://www.w3.org/1999/02/22-rdf-syntax-ns#" xmlns:svg="http://www.w3.org/2000/svg" xmlns="http://www.w3.org/2000/svg" xmlns:sodipodi="http://sodipodi.sourceforge.net/DTD/sodipodi-0.dtd" xmlns:inkscape="http://www.inkscape.org/namespaces/inkscape" viewBox="0 0 16.933332 21.166665000000002" version="1.1" x="0px" y="0px"><g transform="translate(81.64286,-139.45952)"><path style="color:#000000;font-style:normal;font-variant:normal;font-weight:normal;font-stretch:normal;font-size:medium;line-height:normal;font-family:sans-serif;font-variant-ligatures:normal;font-variant-position:normal;font-variant-caps:normal;font-variant-numeric:normal;font-variant-alternates:normal;font-feature-settings:normal;text-indent:0;text-align:start;text-decoration:none;text-decoration-line:none;text-decoration-style:solid;text-decoration-color:#000000;letter-spacing:normal;word-spacing:normal;text-transform:none;writing-mode:lr-tb;direction:ltr;text-orientation:mixed;dominant-baseline:auto;baseline-shift:baseline;text-anchor:start;white-space:normal;shape-padding:0;clip-rule:nonzero;display:inline;overflow:visible;visibility:visible;opacity:1;isolation:auto;mix-blend-mode:normal;color-interpolation:sRGB;color-interpolation-filters:linearRGB;solid-color:#000000;solid-opacity:1;vector-effect:none;fill:#000000;fill-opacity:1;fill-rule:nonzero;stroke:none;stroke-width:0.52916664;stroke-linecap:round;stroke-linejoin:round;stroke-miterlimit:4;stroke-dasharray:none;stroke-dashoffset:0;stroke-opacity:1;paint-order:normal;color-rendering:auto;image-rendering:auto;shape-rendering:auto;text-rendering:auto;enable-background:accumulate" d="m -80.037872,140.71458 c -0.297507,0 -0.546635,0.24711 -0.546635,0.54462 v 11.23334 c 0,0.23443 0.153207,0.34127 0.250478,0.41161 0.09727,0.0704 0.189739,0.11193 0.189739,0.11193 a 0.25702862,0.25702862 0 0 0 0.106418,0.0227 h 8.895714 a 0.25706769,0.25706769 0 1 0 0,-0.51401 h -8.827448 c -0.01915,-0.01 -0.03302,-0.0147 -0.06275,-0.0362 -0.04672,-0.0338 -0.03815,-0.071 -0.03815,0.004 v -9.16527 h 11.557604 v 2.10572 a 0.25706769,0.25706769 0 0 0 0.514005,0 v -2.34063 a 0.25706283,0.25706283 0 0 0 0,-0.0422 v -1.79098 a 0.25702862,0.25702862 0 0 0 -0.02059,-0.10441 c 0,0 -0.04159,-0.0924 -0.111938,-0.18974 -0.07032,-0.0973 -0.177681,-0.25048 -0.412107,-0.25048 z m -5.14e-4,0.5145 h 11.495361 c -0.0749,0 -0.03772,-0.0106 -0.0039,0.0362 0.0202,0.0279 0.02393,0.0395 0.03414,0.0587 v 1.48881 h -11.557603 v -1.55356 c 0,-0.0217 0.01047,-0.0301 0.03213,-0.0301 z m 7.953038,0.53459 a 0.25756256,0.25756256 0 0 0 0.02511,0.51451 h 0.78707 a 0.25725638,0.25725638 0 1 0 0,-0.51451 h -0.78707 a 0.25702862,0.25702862 0 0 0 -0.02511,0 z m 1.96768,0 a 0.25760016,0.25760016 0 0 0 0.02661,0.51451 h 0.787073 a 0.25725638,0.25725638 0 1 0 0,-0.51451 h -0.787073 a 0.25702862,0.25702862 0 0 0 -0.02661,0 z m -4.177805,2.88776 a 0.25702862,0.25702862 0 0 0 -0.176189,0.0738 l -1.051101,1.0511 a 0.25702862,0.25702862 0 1 0 0.364421,0.36242 l 0.610886,-0.61089 v 3.84199 a 0.25706769,0.25706769 0 0 0 0.514006,0 v -3.84049 l 0.610883,0.60939 a 0.25702862,0.25702862 0 1 0 0.362414,-0.36242 l -1.049093,-1.0511 a 0.25702862,0.25702862 0 0 0 -0.186227,-0.0738 z m 6.040571,1.83618 c -1.370885,0 -2.487204,1.11632 -2.487204,2.4872 0,0.6461 0.250349,1.23431 0.656059,1.67755 a 0.25702862,0.25702862 0 0 0 -0.0016,0.0281 v 4.20039 a 0.25702862,0.25702862 0 0 0 0.440219,0.1802 l 1.392433,-1.39243 1.392435,1.39243 a 0.25702862,0.25702862 0 0 0 0.438211,-0.1802 v -4.20039 a 0.25706283,0.25706283 0 0 0 -0.0011,-0.0261 c 0.406846,-0.44348 0.657568,-1.03244 0.657568,-1.67956 0,-1.37088 -1.11633,-2.4872 -2.487206,-2.4872 z m -7.089665,0.258 a 0.25702862,0.25702862 0 0 0 -0.252487,0.26202 v 0.78759 a 0.25702862,0.25702862 0 1 0 0.512499,0 v -0.78759 a 0.25702862,0.25702862 0 0 0 -0.260012,-0.26202 z m 7.089665,0.2565 c 1.093091,0 1.973202,0.8796 1.973202,1.9727 0,1.09309 -0.880111,1.97521 -1.973202,1.97521 -1.093097,0 -1.972698,-0.88212 -1.972698,-1.97521 0,-1.0931 0.879601,-1.9727 1.972698,-1.9727 z m 0.0055,0.65706 a 0.25702859,0.25702859 0 0 0 -0.234414,0.14356 l -0.284611,0.57475 -0.63498,0.0894 a 0.25702859,0.25702859 0 0 0 -0.145065,0.43821 l 0.459794,0.44975 -0.110431,0.63146 a 0.25702859,0.25702859 0 0 0 0.370947,0.27258 l 0.569724,-0.29817 0.567713,0.30218 a 0.25702859,0.25702859 0 0 0 0.373459,-0.27006 l -0.105913,-0.63346 0.459794,-0.44776 a 0.25702859,0.25702859 0 0 0 -0.142053,-0.4372 l -0.634476,-0.0938 -0.282101,-0.57775 a 0.25702859,0.25702859 0 0 0 -0.201787,-0.14155 0.25702859,0.25702859 0 0 0 -0.02559,-0.002 z m -4.994994,0.13754 a 0.25702862,0.25702862 0 0 0 -0.253991,0.26002 v 0.78756 a 0.25706769,0.25706769 0 0 0 0.514007,0 v -0.78756 a 0.25702862,0.25702862 0 0 0 -0.260016,-0.26002 z m 4.990977,0.70074 0.111436,0.2304 a 0.25702859,0.25702859 0 0 0 0.193754,0.14055 l 0.253991,0.0367 -0.183716,0.17869 a 0.25702859,0.25702859 0 0 0 -0.07579,0.2274 l 0.04368,0.25399 -0.227889,-0.12097 a 0.25702859,0.25702859 0 0 0 -0.238935,-9.8e-4 l -0.227386,0.11796 0.04467,-0.25048 a 0.25702859,0.25702859 0 0 0 -0.07279,-0.22838 l -0.183215,-0.18021 0.253489,-0.0352 a 0.25702859,0.25702859 0 0 0 0.193254,-0.14004 z m -6.825636,1.40147 a 0.25706769,0.25706769 0 0 0 0,0.514 h 1.574644 a 0.25706769,0.25706769 0 1 0 0,-0.514 z m -0.288125,1.0511 a 0.2574104,0.2574104 0 0 0 0.02661,0.514 h 2.100197 a 0.25706769,0.25706769 0 1 0 0,-0.514 h -2.10019 a 0.25702862,0.25702862 0 0 0 -0.02661,0 z m 5.793609,0.13101 c 0.382878,0.24116 0.834118,0.38299 1.318646,0.38299 0.483675,0 0.93419,-0.14161 1.31664,-0.38198 v 3.1764 l -1.134428,-1.13444 a 0.25702862,0.25702862 0 0 0 -0.364422,0 l -1.136436,1.13644 z"/></g></svg>