<svg xmlns="http://www.w3.org/2000/svg" xmlns:xlink="http://www.w3.org/1999/xlink" version="1.1" x="0px" y="0px" viewBox="0 0 100 100" style="enable-background:new 0 0 100 100;" xml:space="preserve"><g><path d="M26.5,79.9H50h23.5c3.5,0,6.4-2.9,6.4-6.4V50V26.5c0-3.5-2.9-6.4-6.4-6.4H50H26.5c-3.5,0-6.4,2.9-6.4,6.4V50v23.5   C20.1,77,23,79.9,26.5,79.9z M22.1,26.5c0-2.4,2-4.4,4.4-4.4H49V30c0,0.4,0.2,0.8,0.6,0.9c0.4,0.2,0.8,0.1,1.1-0.2   c1.3-1.3,3-2,4.9-1.9c3.5,0.1,6.5,3,6.6,6.5c0.1,1.9-0.6,3.6-1.9,5c-1.3,1.3-3,2.1-4.9,2.1c-1.8,0-3.4-0.7-4.7-1.9   c-0.3-0.3-0.7-0.4-1.1-0.2c-0.4,0.2-0.6,0.5-0.6,0.9V49h-5.9c0.8-1.3,1.2-2.8,1.2-4.4c0-0.3,0-0.6,0-0.9c-0.2-2.1-1.1-4-2.6-5.4   c-0.1-0.1-0.2-0.2-0.3-0.3c-1.7-1.5-3.8-2.3-6.1-2.2c-1.7,0.1-3.3,0.6-4.6,1.6c-2.2,1.6-3.7,4.1-3.8,7c0,0,0,0,0,0v0   c0,1.2,0.2,2.4,0.7,3.5c0.2,0.4,0.3,0.7,0.5,1.1h-5.9V26.5z M77.9,26.5V49H70c-0.4,0-0.8,0.2-0.9,0.6c-0.2,0.4-0.1,0.8,0.2,1.1   c0.3,0.3,0.6,0.7,0.8,1.1c0.7,1.1,1.1,2.4,1.1,3.8c0,2.1-1.1,3.9-2.6,5.2c-1.1,0.9-2.4,1.4-3.9,1.5c-0.9,0-1.7-0.1-2.5-0.4   c-0.9-0.3-1.7-0.8-2.4-1.5c-1.3-1.3-2.1-3-2.1-4.9c0-1.8,0.7-3.4,1.9-4.7c0.3-0.3,0.4-0.7,0.2-1.1c-0.2-0.4-0.5-0.6-0.9-0.6H51   v-5.9c1.3,0.8,2.8,1.2,4.4,1.2c2.4,0,4.6-1,6.3-2.7c1.7-1.7,2.5-4,2.4-6.4c-0.2-4.6-4-8.3-8.6-8.4c-1.6,0-3.2,0.4-4.6,1.2v-5.9   h22.5C75.9,22.1,77.9,24.1,77.9,26.5z M77.9,73.5c0,2.4-2,4.4-4.4,4.4H51V70c0-0.4-0.2-0.8-0.6-0.9c-0.4-0.2-0.8-0.1-1.1,0.2   c-1.3,1.3-3,2-4.9,1.9c-3.5-0.1-6.5-3-6.6-6.5c-0.1-1.9,0.6-3.6,1.9-5c1.3-1.3,3-2.1,4.9-2.1c1.8,0,3.4,0.7,4.7,1.9   c0.3,0.3,0.7,0.4,1.1,0.2c0.4-0.2,0.6-0.5,0.6-0.9V51h5.9c-0.8,1.3-1.2,2.8-1.2,4.4c0,0.3,0,0.6,0,0.9c0.2,2.1,1.1,4,2.6,5.4   c1.7,1.7,4,2.5,6.4,2.4c4.6-0.2,8.3-4,8.4-8.6c0-1.2-0.2-2.4-0.7-3.5c-0.2-0.4-0.3-0.7-0.5-1.1h5.9V73.5z M22.1,51H30   c0.4,0,0.8-0.2,0.9-0.6c0.2-0.4,0.1-0.8-0.2-1.1c-0.2-0.2-0.3-0.3-0.5-0.5c-1-1.2-1.5-2.8-1.5-4.4c0.1-3.3,2.6-6.1,5.8-6.6   c0.2,0,0.4,0,0.7-0.1c1.9-0.1,3.6,0.6,5,1.9c1.3,1.3,2.1,3,2.1,4.9c0,1.8-0.7,3.4-1.9,4.7c-0.3,0.3-0.4,0.7-0.2,1.1   c0.2,0.4,0.5,0.6,0.9,0.6H49v5.9c-1.3-0.8-2.8-1.2-4.4-1.2c-2.4,0-4.6,1-6.3,2.7c-1.7,1.7-2.5,4-2.4,6.4c0.2,4.6,4,8.3,8.6,8.4   c1.6,0,3.2-0.4,4.6-1.2v5.9H26.5c-2.4,0-4.4-2-4.4-4.4V51z"/></g></svg>