<?xml version="1.0" encoding="UTF-8"?>
<svg width="40px" height="40px" viewBox="0 0 40 40" version="1.1" xmlns="http://www.w3.org/2000/svg" xmlns:xlink="http://www.w3.org/1999/xlink">
    <!-- Generator: Sketch 47.1 (45422) - http://www.bohemiancoding.com/sketch -->
    <title>Group 15</title>
    <desc>Created with Sketch.</desc>
    <defs></defs>
    <g id="Homepage" stroke="none" stroke-width="1" fill="none" fill-rule="evenodd">
        <g id="Group-15">
            <path d="M20,40 C8.954305,40 0,31.045695 0,20 C0,8.954305 8.954305,0 20,0 C31.045695,0 40,8.954305 40,20 C40,31.045695 31.045695,40 20,40 Z" id="path-1-path" fill="#343a40"></path>
            <path d="M17.0902022,16.6407464 L17.0902022,30 L21.2371695,30 L21.2371695,23.3926906 C21.2371695,21.6493002 21.5668741,19.9611198 23.7278382,19.9611198 C25.8584759,19.9611198 25.8849145,21.9541213 25.8849145,23.5031104 L25.8849145,30 L30.0365475,30 L30.0365475,22.6734059 C30.0365475,19.0754277 29.2597201,16.3094867 25.0552099,16.3094867 C23.0357698,16.3094867 21.681182,17.4167963 21.1275271,18.4673405 L21.0699844,18.4673405 L21.0699844,16.6407464 L17.0902022,16.6407464 Z M12.4090202,10 C11.0754277,10 10,11.0785381 10,12.407465 C10,13.7371695 11.0754277,14.8157076 12.4090202,14.8157076 C13.7371694,14.8157076 14.81493,13.7371695 14.81493,12.407465 C14.81493,11.0785381 13.7371694,10 12.4090202,10 Z M10.3297045,30 L14.4860031,30 L14.4860031,16.6407464 L10.3297045,16.6407464 L10.3297045,30 Z" id="path-1" fill="#FFE500" fill-rule="nonzero"></path>
        </g>
    </g>
</svg>