<?xml version="1.0" encoding="UTF-8"?>
<svg width="40px" height="40px" viewBox="0 0 40 40" version="1.1" xmlns="http://www.w3.org/2000/svg" xmlns:xlink="http://www.w3.org/1999/xlink">
    <!-- Generator: Sketch 47.1 (45422) - http://www.bohemiancoding.com/sketch -->
    <title>Group 14</title>
    <desc>Created with Sketch.</desc>
    <defs></defs>
    <g id="Homepage" stroke="none" stroke-width="1" fill="none" fill-rule="evenodd">
        <g id="Group-14">
            <circle id="Path" fill="#343a40" cx="20" cy="20" r="20"></circle>
            <path d="M10.7622343,14.6719577 C10.7911755,14.393633 10.6821309,14.11854 10.468611,13.9312169 L8.29362333,11.3809524 L8.29362333,11 L15.04696,11 L20.2669303,22.1428571 L24.8561543,11 L31.2941176,11 L31.2941176,11.3809524 L29.4345032,13.1164021 C29.2741841,13.2353486 29.1946576,13.4308457 29.2278794,13.6243386 L29.2278794,26.3756614 C29.1946576,26.5691543 29.2741841,26.7646513 29.4345032,26.8835979 L31.2506179,28.6190477 L31.2506179,29 L22.1156698,29 L22.1156698,28.6190477 L23.9970342,26.8412699 C24.181908,26.6613756 24.181908,26.6084657 24.181908,26.3333334 L24.181908,16.026455 L18.9510628,28.957672 L18.2441918,28.957672 L12.1542264,16.026455 L12.1542264,24.6931217 C12.1034505,25.0574927 12.2277792,25.4243346 12.4913495,25.6878307 L14.9382106,28.5767196 L14.9382106,28.957672 L8,28.957672 L8,28.5767196 L10.4468611,25.6878307 C10.7085123,25.4238978 10.8255914,25.0546224 10.7622343,24.6931217 L10.7622343,14.6719577 Z" id="Combined-Shape" fill="#FFE500"></path>
        </g>
    </g>
</svg>