<svg xmlns="http://www.w3.org/2000/svg" data-name="Layer 1" viewBox="0 0 100 125" x="0px" y="0px"><title>Artboard 37</title><path d="M77,27.84l-27-9-27,9V52A26.93,26.93,0,0,0,39.62,76.92L50,81.25l10.38-4.33A26.93,26.93,0,0,0,77,52ZM71,52A20.94,20.94,0,0,1,58.08,71.38L50,74.75l-8.08-3.37A20.94,20.94,0,0,1,29,52V32.16l21-7,21,7Z"/><path d="M41.12,44.88l-4.24,4.24,9,9A3,3,0,0,0,48,59h0a3,3,0,0,0,2.14-.95l15-16-4.38-4.1L47.93,51.69Z"/><text x="0" y="115" fill="#000000" font-size="5px" font-weight="bold" font-family="'Helvetica Neue', Helvetica, Arial-Unicode, Arial, Sans-serif">Created by Gregor Cresnar</text><text x="0" y="120" fill="#000000" font-size="5px" font-weight="bold" font-family="'Helvetica Neue', Helvetica, Arial-Unicode, Arial, Sans-serif">from the Noun Project</text></svg>