<svg xmlns="http://www.w3.org/2000/svg" xmlns:xlink="http://www.w3.org/1999/xlink" version="1.1" x="0px" y="0px" viewBox="0 0 512 640" style="enable-background:new 0 0 512 512;" xml:space="preserve"><title>Security Report</title><g><path d="M174.5,345.9C174.5,345.9,174.5,345.9,174.5,345.9L174.5,345.9l-55.3,45l-21.9-25.6c-2.1-2.5-5.9-2.8-8.5-0.7   c-2.5,2.1-2.8,5.9-0.7,8.5c0,0,0,0,0,0l25.7,30.1c2.1,2.5,5.8,2.8,8.3,0.8l59.8-48.7c2.6-2.1,3-5.8,0.9-8.4   S177.1,343.8,174.5,345.9z"/><path d="M453.4,33.2H323.8c-9.7-20.3-34.1-29-54.4-19.2c-8.4,4-15.2,10.8-19.2,19.2H120.5c-14,0-25.3,11.4-25.4,25.4v209.8   l-58.8,32.2c-1.9,1.1-3.1,3.1-3.1,5.3v60c0.1,56.3,33.4,107.3,85,129.8l13.2,5.7c1.5,0.7,3.3,0.7,4.8,0l14.8-6.4   c5.9-2.5,11.5-5.3,17-8.6h285.4c14,0,25.3-11.4,25.4-25.4V58.6C478.8,44.6,467.4,33.2,453.4,33.2z M252.1,74.3c3.3,0,6-2.7,6-6   V50.8C258.1,34.9,271,22,287,22c15.9,0,28.8,12.9,28.8,28.8v17.4c0,3.3,2.7,6,6,6h57.9v34.5H194.3V74.3H252.1z M390.8,365.6   c-14,0-25.3,11.4-25.4,25.4v30.3H226c7.8-17.9,11.8-37.1,11.8-56.6v-58.7c0-2.2-1.2-4.3-3.2-5.3l-82.6-44V102.2   c0-2,1.6-3.7,3.7-3.7h26.5v16.2c0,3.3,2.7,6,6,6h197.4c3.3,0,6-2.7,6-6V98.5h26.5c2,0,3.7,1.6,3.7,3.7l0,263.4H390.8z M413.6,377.6   l-36.2,36.2V391c0-7.4,6-13.3,13.4-13.4H413.6z M107.2,58.6c0-7.4,6-13.3,13.4-13.4h126c-0.3,1.9-0.4,3.7-0.4,5.6v11.4h-57.9   c-3.3,0-6,2.7-6,6v18.3h-26.5c-8.7,0-15.7,7-15.7,15.7v148l-3.1-1.6c-1.8-1-3.9-0.9-5.7,0l-24.1,13.2V58.6z M146.4,484.1   L146.4,484.1L146.4,484.1l-12.5,5.4l-10.8-4.7c-47.2-20.7-77.8-67.3-77.8-118.8v-56.5l58.8-32.2l0,0l30.2-16.5l9,4.8l0.1,0l82.6,44   v55.1C225.8,416.8,194.5,463.9,146.4,484.1z M453.4,474.5H185.3c14.1-11.4,25.9-25.4,34.7-41.3h147.7c0.8,0,1.6-0.1,2.3-0.2   c2.2,0.5,4.4-0.2,5.9-1.9c1.5-0.8,3-1.9,4.2-3.1l48.6-48.6c3.3-3.3,5.2-7.8,5.2-12.5V102.2c0-8.7-7-15.7-15.7-15.7h-26.5V68.3   c0-3.3-2.7-6-6-6h-57.9V50.8c0-1.9-0.1-3.8-0.4-5.6h126c7.4,0,13.3,6,13.4,13.4l0,402.6C466.8,468.5,460.8,474.5,453.4,474.5z"/><path d="M378.4,181.9h7.3c3.3,0,6-2.7,6-6s-2.7-6-6-6h-7.3c-3.3,0-6,2.7-6,6S375.1,181.9,378.4,181.9z"/><path d="M249.1,181.9h106.7c3.3,0,6-2.7,6-6s-2.7-6-6-6H249.1c-3.3,0-6,2.7-6,6S245.8,181.9,249.1,181.9z"/><path d="M188.3,181.9H226c3.3,0,6-2.7,6-6s-2.7-6-6-6h-37.7c-3.3,0-6,2.7-6,6S184.9,181.9,188.3,181.9z"/><path d="M385.7,222h-20.4c-3.3,0-6,2.7-6,6s2.7,6,6,6h20.4c3.3,0,6-2.7,6-6S389,222,385.7,222z"/><path d="M315.4,222c-3.3,0-6,2.7-6,6s2.7,6,6,6h27.8c3.3,0,6-2.7,6-6s-2.7-6-6-6H315.4z"/><path d="M302,228c0-3.3-2.7-6-6-6H188.3c-3.3,0-6,2.7-6,6s2.7,6,6,6H296C299.3,234,302,231.4,302,228z"/><path d="M385.7,277.5H272.9c-3.3,0-6,2.7-6,6s2.7,6,6,6h112.7c3.3,0,6-2.7,6-6S389,277.5,385.7,277.5z"/><path d="M256.9,283.5c0-3.3-2.7-6-6-6h-26.8c-3.3,0-6,2.7-6,6s2.7,6,6,6h26.8C254.2,289.5,256.9,286.8,256.9,283.5z"/><path d="M385.7,328.7H313c-3.3,0-6,2.7-6,6s2.7,6,6,6h72.7c3.3,0,6-2.7,6-6S389,328.7,385.7,328.7z"/><path d="M290.9,328.7h-38.1c-3.3,0-6,2.7-6,6s2.7,6,6,6h38.1c3.3,0,6-2.7,6-6S294.3,328.7,290.9,328.7z"/></g><text x="0" y="527" fill="#000000" font-size="5px" font-weight="bold" font-family="'Helvetica Neue', Helvetica, Arial-Unicode, Arial, Sans-serif">Created by Icongeek26</text><text x="0" y="532" fill="#000000" font-size="5px" font-weight="bold" font-family="'Helvetica Neue', Helvetica, Arial-Unicode, Arial, Sans-serif">from the Noun Project</text></svg>