<?xml version="1.0" encoding="UTF-8"?>
<svg width="40px" height="40px" viewBox="0 0 40 40" version="1.1" xmlns="http://www.w3.org/2000/svg" xmlns:xlink="http://www.w3.org/1999/xlink">
    <!-- Generator: Sketch 47.1 (45422) - http://www.bohemiancoding.com/sketch -->
    <title>Group 13</title>
    <desc>Created with Sketch.</desc>
    <defs></defs>
    <g id="Homepage" stroke="none" stroke-width="1" fill="none" fill-rule="evenodd">
        <g id="Group-13">
            <circle id="Path" fill="#343a40" cx="20" cy="20" r="20"></circle>
            <path d="M28.6181979,10.001863 C28.3304367,10.0152472 28.0594065,10.0988983 27.8184905,10.1925879 L27.8151446,10.1925879 C27.570882,10.2896233 26.4098014,10.7781478 24.6464301,11.5176258 C22.8830587,12.2604505 20.5943569,13.2241144 18.3223852,14.1810858 C13.7851342,16.0916836 9.32484273,17.9721662 9.32484273,17.9721662 L9.37837961,17.9520903 C9.37837961,17.9520903 9.07054253,18.0524715 8.74932122,18.2733116 C8.58536473,18.3803854 8.40467731,18.5276118 8.24741336,18.7584894 C8.09014854,18.989367 7.96299802,19.3440493 8.00984322,19.7087691 C8.0868027,20.3277891 8.48832934,20.6992015 8.77608966,20.9033106 C9.06719669,21.1107665 9.34491949,21.2078019 9.34491949,21.2078019 L9.35161117,21.2078019 L13.5341807,22.6164909 C13.7215598,23.2187809 14.8090276,26.7923679 15.0700194,27.615498 C15.2239384,28.1073683 15.3745107,28.4152054 15.5618898,28.6494288 C15.6522335,28.7698868 15.7593073,28.8702689 15.8864569,28.9505742 C15.936648,28.9806885 15.9901849,29.0041111 16.0437217,29.024187 C16.0604518,29.0342254 16.0771827,29.0375712 16.0972586,29.0409171 L16.0537601,29.0308796 C16.0671443,29.0342254 16.0771827,29.0442638 16.0872202,29.0476096 C16.1206812,29.057648 16.1441038,29.0609938 16.1876023,29.0676855 C16.8501208,29.2684488 17.3821438,28.8568847 17.3821438,28.8568847 L17.4122581,28.8334621 L19.8816474,26.5849129 L24.0207175,29.7603192 L24.1144071,29.8004718 C24.9776898,30.1785759 25.85101,29.967775 26.3127652,29.5963627 C26.7778671,29.2216045 26.9585545,28.7431184 26.9585545,28.7431184 L26.9886688,28.6661589 L30.1874976,12.2805264 C30.2778413,11.8756539 30.3012631,11.4975499 30.2008818,11.1294834 C30.1004998,10.7614177 29.8428537,10.4167738 29.5316708,10.2327406 C29.2171412,10.0453615 28.9059582,9.98847874 28.6181979,10.001863 Z M28.5312,11.7585418 C28.5278542,11.8120786 28.5378926,11.805387 28.51447,11.909114 L28.51447,11.9191524 L25.3457554,28.1341367 C25.3323712,28.1575585 25.3089486,28.2077495 25.2453742,28.2579406 C25.1784531,28.3114775 25.1249162,28.3449376 24.8471934,28.234518 L19.784612,24.3530938 L16.726317,27.1403577 L17.3687596,23.0380943 C17.3687596,23.0380943 25.2989111,15.6466584 25.6402083,15.328783 C25.9815064,15.0109075 25.86774,14.9439864 25.86774,14.9439864 C25.8911626,14.555844 25.352448,14.8302209 25.352448,14.8302209 L14.922793,21.291453 L14.9194472,21.274723 L9.920441,19.591657 L9.920441,19.5883111 C9.9170943,19.5883111 9.91040262,19.5849653 9.90705678,19.5849653 C9.91040262,19.5849653 9.93382522,19.5749269 9.93382522,19.5749269 L9.96059366,19.5615427 L9.9873621,19.5515043 C9.9873621,19.5515043 14.4509994,17.6710217 18.9882504,15.7604239 C21.2602221,14.8034525 23.5489239,13.8397886 25.3089486,13.0969639 C27.0689741,12.3574859 28.3705894,11.8154245 28.444203,11.7853102 C28.51447,11.7585418 28.481009,11.7585418 28.5312,11.7585418 Z" id="Shape" fill="#FFE500" fill-rule="nonzero"></path>
        </g>
    </g>
</svg>