<?xml version="1.0" encoding="UTF-8"?>
<svg width="40px" height="40px" viewBox="0 0 40 40" version="1.1" xmlns="http://www.w3.org/2000/svg" xmlns:xlink="http://www.w3.org/1999/xlink">
    <!-- Generator: Sketch 47.1 (45422) - http://www.bohemiancoding.com/sketch -->
    <title>Group 16</title>
    <desc>Created with Sketch.</desc>
    <defs></defs>
    <g id="Homepage" stroke="none" stroke-width="1" fill="none" fill-rule="evenodd">
        <g id="Group-16">
            <circle id="Path" fill="#343a40" cx="20" cy="20" r="20"></circle>
            <path d="M15.96539,29 C24.323539,29 28.8941913,22.0755397 28.8941913,16.0711987 C28.8941913,15.8744352 28.8902046,15.6785577 28.8811682,15.4837433 C29.7683312,14.8424239 30.5396155,14.0421699 31.1480672,13.1309984 C30.3338157,13.4926321 29.4576381,13.736438 28.5384933,13.8462924 C29.4766855,13.2839087 30.1969406,12.3937336 30.5366034,11.3327526 C29.6584768,11.8532321 28.6863538,12.2317869 27.6513304,12.4356377 C26.8221953,11.5524614 25.6412604,11 24.3345244,11 C21.8248826,11 19.7898296,13.035053 19.7898296,15.5437203 C19.7898296,15.9003928 19.8297847,16.2470543 19.9076573,16.5798069 C16.1312347,16.3899536 12.7824469,14.5816968 10.5415055,11.8322358 C10.1509022,12.503588 9.92614358,13.2839087 9.92614358,14.1160559 C9.92614358,15.6926439 10.7283466,17.0843398 11.9481735,17.8985028 C11.2029354,17.8755574 10.5026135,17.6707321 9.89017512,17.3300062 C9.88911201,17.3489649 9.88911201,17.3680123 9.88911201,17.3879455 C9.88911201,19.5889319 11.4556891,21.4261583 13.5346839,21.8428078 C13.153117,21.9466379 12.7514396,22.0026282 12.3368278,22.0026282 C12.0441189,22.0026282 11.7593834,21.9736586 11.4826211,21.9206804 C12.0611287,23.7260136 13.7385347,25.0397484 15.7276083,25.07678 C14.1721052,26.2955438 12.2129758,27.0219118 10.084015,27.0219118 C9.7173316,27.0219118 9.35569796,27.0009155 9,26.9589227 C11.0111331,28.2476745 13.3988719,29 15.96539,29" id="Combined-Shape" fill="#FFE500"></path>
        </g>
    </g>
</svg>