<svg width="96" height="92" viewBox="0 0 96 92" fill="none" xmlns="http://www.w3.org/2000/svg">
<path fill-rule="evenodd" clip-rule="evenodd" d="M75.3568 5.51601C75.3568 8.56232 72.8806 11.0321 69.8259 11.0321C66.7715 11.0321 64.2949 8.56232 64.2949 5.51601C64.2949 2.46953 66.7715 0 69.8259 0C72.8806 0 75.3568 2.46953 75.3568 5.51601ZM81.579 83.4306C81.579 86.4769 79.1032 88.9464 76.0484 88.9464C72.9937 88.9464 70.5175 86.4769 70.5175 83.4306C70.5175 80.3838 72.9937 77.9144 76.0484 77.9144C79.1032 77.9144 81.579 80.3838 81.579 83.4306ZM71.4069 24.8221C73.9705 24.8221 76.0488 22.7495 76.0488 20.1928C76.0488 17.6358 73.9705 15.5632 71.4069 15.5632C68.8433 15.5632 66.765 17.6358 66.765 20.1928C66.765 22.7495 68.8433 24.8221 71.4069 24.8221ZM88.3954 21.9656C88.3954 24.5223 86.3167 26.5951 83.7531 26.5951C81.1895 26.5951 79.1112 24.5223 79.1112 21.9656C79.1112 19.4086 81.1895 17.336 83.7531 17.336C86.3167 17.336 88.3954 19.4086 88.3954 21.9656ZM69.8266 36.5437C72.0084 36.5437 73.7773 34.7798 73.7773 32.6038C73.7773 30.4277 72.0084 28.6637 69.8266 28.6637C67.6449 28.6637 65.876 30.4277 65.876 32.6038C65.876 34.7798 67.6449 36.5437 69.8266 36.5437ZM86.1235 34.2787C86.1235 36.4547 84.3546 38.2189 82.1728 38.2189C79.9911 38.2189 78.2222 36.4547 78.2222 34.2787C78.2222 32.1029 79.9911 30.3387 82.1728 30.3387C84.3546 30.3387 86.1235 32.1029 86.1235 34.2787ZM92.0493 42.0601C94.2311 42.0601 96 40.296 96 38.12C96 35.944 94.2311 34.18 92.0493 34.18C89.8675 34.18 88.0987 35.944 88.0987 38.12C88.0987 40.296 89.8675 42.0601 92.0493 42.0601ZM81.9739 44.2267C81.9739 46.1307 80.4262 47.674 78.517 47.674C76.6078 47.674 75.0605 46.1307 75.0605 44.2267C75.0605 42.3227 76.6078 40.7794 78.517 40.7794C80.4262 40.7794 81.9739 42.3227 81.9739 44.2267ZM66.1731 45.9988C68.0823 45.9988 69.6296 44.4552 69.6296 42.5515C69.6296 40.6475 68.0823 39.1038 66.1731 39.1038C64.2639 39.1038 62.7162 40.6475 62.7162 42.5515C62.7162 44.4552 64.2639 45.9988 66.1731 45.9988ZM91.9497 48.0677C91.9497 49.9717 90.402 51.515 88.4932 51.515C86.5839 51.515 85.0363 49.9717 85.0363 48.0677C85.0363 46.1637 86.5839 44.62 88.4932 44.62C90.402 44.62 91.9497 46.1637 91.9497 48.0677ZM73.5799 54.8642C75.2161 54.8642 76.5426 53.5409 76.5426 51.9091C76.5426 50.2768 75.2161 48.954 73.5799 48.954C71.9433 48.954 70.6168 50.2768 70.6168 51.9091C70.6168 53.5409 71.9433 54.8642 73.5799 54.8642ZM86.5188 55.6523C86.5188 57.2846 85.1919 58.6075 83.5557 58.6075C81.9194 58.6075 80.5926 57.2846 80.5926 55.6523C80.5926 54.0205 81.9194 52.6972 83.5557 52.6972C85.1919 52.6972 86.5188 54.0205 86.5188 55.6523ZM61.3322 53.0905C62.9685 53.0905 64.2953 51.7672 64.2953 50.1354C64.2953 48.5035 62.9685 47.1807 61.3322 47.1807C59.696 47.1807 58.3691 48.5035 58.3691 50.1354C58.3691 51.7672 59.696 53.0905 61.3322 53.0905ZM70.6164 57.229C70.6164 58.589 69.5111 59.6915 68.1475 59.6915C66.7838 59.6915 65.6782 58.589 65.6782 57.229C65.6782 55.8689 66.7838 54.7664 68.1475 54.7664C69.5111 54.7664 70.6164 55.8689 70.6164 57.229ZM72.3937 66.4876C73.5941 66.4876 74.5667 65.5174 74.5667 64.3207C74.5667 63.1243 73.5941 62.154 72.3937 62.154C71.1942 62.154 70.2211 63.1243 70.2211 64.3207C70.2211 65.5174 71.1942 66.4876 72.3937 66.4876ZM68.9376 66.0943C68.9376 67.0734 68.1417 67.8672 67.1595 67.8672C66.1777 67.8672 65.3818 67.0734 65.3818 66.0943C65.3818 65.1149 66.1777 64.3214 67.1595 64.3214C68.1417 64.3214 68.9376 65.1149 68.9376 66.0943ZM62.5176 62.7444C63.7176 62.7444 64.6906 61.7742 64.6906 60.5774C64.6906 59.3806 63.7176 58.4104 62.5176 58.4104C61.3177 58.4104 60.3447 59.3806 60.3447 60.5774C60.3447 61.7742 61.3177 62.7444 62.5176 62.7444ZM58.2714 55.5546C58.2714 56.9146 57.1661 58.0171 55.8021 58.0171C54.4384 58.0171 53.3331 56.9146 53.3331 55.5546C53.3331 54.1945 54.4384 53.092 55.8021 53.092C57.1661 53.092 58.2714 54.1945 58.2714 55.5546ZM55.7028 39.4975C57.0664 39.4975 58.1717 38.3951 58.1717 37.0351C58.1717 35.675 57.0664 34.5726 55.7028 34.5726C54.3391 34.5726 53.2334 35.675 53.2334 37.0351C53.2334 38.3951 54.3391 39.4975 55.7028 39.4975ZM58.9622 28.6628C58.9622 29.8597 57.9896 30.8298 56.7896 30.8298C55.5897 30.8298 54.6167 29.8597 54.6167 28.6628C54.6167 27.4661 55.5897 26.4958 56.7896 26.4958C57.9896 26.4958 58.9622 27.4661 58.9622 28.6628ZM59.1596 23.7379C60.1415 23.7379 60.9374 22.9441 60.9374 21.9647C60.9374 20.9856 60.1415 20.1917 59.1596 20.1917C58.1778 20.1917 57.3819 20.9856 57.3819 21.9647C57.3819 22.9441 58.1778 23.7379 59.1596 23.7379ZM57.1845 18.2228C57.1845 19.4197 56.2115 20.3898 55.0119 20.3898C53.812 20.3898 52.839 19.4197 52.839 18.2228C52.839 17.0261 53.812 16.0558 55.0119 16.0558C56.2115 16.0558 57.1845 17.0261 57.1845 18.2228ZM78.0236 63.4332C79.3872 63.4332 80.4929 62.3308 80.4929 60.9707C80.4929 59.611 79.3872 58.5082 78.0236 58.5082C76.6599 58.5082 75.5546 59.611 75.5546 60.9707C75.5546 62.3308 76.6599 63.4332 78.0236 63.4332ZM51.851 15.0705C51.851 16.4304 50.7457 17.5328 49.3821 17.5328C48.0184 17.5328 46.9128 16.4304 46.9128 15.0705C46.9128 13.7105 48.0184 12.608 49.3821 12.608C50.7457 12.608 51.851 13.7105 51.851 15.0705ZM51.0612 27.9747C52.4253 27.9747 53.5306 26.8722 53.5306 25.5121C53.5306 24.1521 52.4253 23.0496 51.0612 23.0496C49.6976 23.0496 48.5923 24.1521 48.5923 25.5121C48.5923 26.8722 49.6976 27.9747 51.0612 27.9747ZM51.2598 34.967C51.2598 36.5989 49.9334 37.9219 48.2971 37.9219C46.6605 37.9219 45.334 36.5989 45.334 34.967C45.334 33.3349 46.6605 32.012 48.2971 32.012C49.9334 32.012 51.2598 33.3349 51.2598 34.967ZM39.3081 37.9219C41.2173 37.9219 42.765 36.3783 42.765 34.4743C42.765 32.5704 41.2173 31.027 39.3081 31.027C37.399 31.027 35.8513 32.5704 35.8513 34.4743C35.8513 36.3783 37.399 37.9219 39.3081 37.9219ZM32.7905 36.3467C32.7905 38.5227 31.0217 40.2868 28.8398 40.2868C26.6581 40.2868 24.8893 38.5227 24.8893 36.3467C24.8893 34.1707 26.6581 32.4067 28.8398 32.4067C31.0217 32.4067 32.7905 34.1707 32.7905 36.3467ZM17.3828 45.9022C19.9466 45.9022 22.0249 43.8296 22.0249 41.2727C22.0249 38.7159 19.9466 36.6433 17.3828 36.6433C14.8193 36.6433 12.7409 38.7159 12.7409 41.2727C12.7409 43.8296 14.8193 45.9022 17.3828 45.9022ZM11.0615 49.8414C11.0615 52.8877 8.58536 55.3575 5.53063 55.3575C2.47615 55.3575 0 52.8877 0 49.8414C0 46.795 2.47615 44.3252 5.53063 44.3252C8.58536 44.3252 11.0615 46.795 11.0615 49.8414ZM12.7415 34.3767C15.3053 34.3767 17.3833 32.3039 17.3833 29.7472C17.3833 27.1903 15.3053 25.1176 12.7415 25.1176C10.1777 25.1176 8.09959 27.1903 8.09959 29.7472C8.09959 32.3039 10.1777 34.3767 12.7415 34.3767ZM28.147 24.8216C28.147 26.9976 26.3782 28.7616 24.1963 28.7616C22.0146 28.7616 20.2458 26.9976 20.2458 24.8216C20.2458 22.6456 22.0146 20.8816 24.1963 20.8816C26.3782 20.8816 28.147 22.6456 28.147 24.8216ZM22.5182 18.3205C24.7001 18.3205 26.4687 16.5565 26.4687 14.3805C26.4687 12.2045 24.7001 10.4405 22.5182 10.4405C20.3362 10.4405 18.5675 12.2045 18.5675 14.3805C18.5675 16.5565 20.3362 18.3205 22.5182 18.3205ZM36.444 12.5092C36.444 14.4134 34.8965 15.9568 32.9873 15.9568C31.0781 15.9568 29.5306 14.4134 29.5306 12.5092C29.5306 10.6053 31.0781 9.06188 32.9873 9.06188C34.8965 9.06188 36.444 10.6053 36.444 12.5092ZM41.9741 15.9568C43.6104 15.9568 44.9368 14.6338 44.9368 13.0019C44.9368 11.37 43.6104 10.0469 41.9741 10.0469C40.3379 10.0469 39.011 11.37 39.011 13.0019C39.011 14.6338 40.3379 15.9568 41.9741 15.9568ZM46.6168 23.4419C46.6168 25.074 45.2899 26.3968 43.6533 26.3968C42.0171 26.3968 40.6906 25.074 40.6906 23.4419C40.6906 21.81 42.0171 20.4869 43.6533 20.4869C45.2899 20.4869 46.6168 21.81 46.6168 23.4419ZM34.6667 26.497C36.5759 26.497 38.1234 24.9534 38.1234 23.0494C38.1234 21.1455 36.5759 19.6019 34.6667 19.6019C32.7575 19.6019 31.21 21.1455 31.21 23.0494C31.21 24.9534 32.7575 26.497 34.6667 26.497ZM26.6659 50.9243C26.6659 51.9037 25.87 52.6972 24.8881 52.6972C23.9063 52.6972 23.1104 51.9037 23.1104 50.9243C23.1104 49.9449 23.9063 49.1514 24.8881 49.1514C25.87 49.1514 26.6659 49.9449 26.6659 50.9243ZM31.9999 51.8113C33.1999 51.8113 34.1726 50.8411 34.1726 49.6443C34.1726 48.4476 33.1999 47.4774 31.9999 47.4774C30.7998 47.4774 29.8269 48.4476 29.8269 49.6443C29.8269 50.8411 30.7998 51.8113 31.9999 51.8113ZM42.2709 46.3944C42.2709 47.7545 41.1656 48.857 39.8019 48.857C38.4383 48.857 37.3328 47.7545 37.3328 46.3944C37.3328 45.0348 38.4383 43.9323 39.8019 43.9323C41.1656 43.9323 42.2709 45.0348 42.2709 46.3944ZM41.6778 56.736C43.314 56.736 44.6409 55.4131 44.6409 53.7813C44.6409 52.149 43.314 50.8262 41.6778 50.8262C40.0411 50.8262 38.7147 52.149 38.7147 53.7813C38.7147 55.4131 40.0411 56.736 41.6778 56.736ZM34.6668 56.1445C34.6668 57.5042 33.5613 58.6071 32.1976 58.6071C30.8339 58.6071 29.7285 57.5042 29.7285 56.1445C29.7285 54.7845 30.8339 53.682 32.1976 53.682C33.5613 53.682 34.6668 54.7845 34.6668 56.1445ZM23.8016 58.5085C25.0017 58.5085 25.9746 57.5383 25.9746 56.3416C25.9746 55.1448 25.0017 54.1746 23.8016 54.1746C22.6018 54.1746 21.6289 55.1448 21.6289 56.3416C21.6289 57.5383 22.6018 58.5085 23.8016 58.5085ZM26.3693 62.8433C26.3693 64.2033 25.2638 65.3058 23.9001 65.3058C22.5364 65.3058 21.431 64.2033 21.431 62.8433C21.431 61.4832 22.5364 60.3807 23.9001 60.3807C25.2638 60.3807 26.3693 61.4832 26.3693 62.8433ZM33.975 66.5858C35.6115 66.5858 36.938 65.2625 36.938 63.6307C36.938 61.9988 35.6115 60.6759 33.975 60.6759C32.3386 60.6759 31.0121 61.9988 31.0121 63.6307C31.0121 65.2625 32.3386 66.5858 33.975 66.5858ZM49.185 61.8577C49.185 63.7621 47.6373 65.3054 45.7281 65.3054C43.8193 65.3054 42.2716 63.7621 42.2716 61.8577C42.2716 59.9537 43.8193 58.4104 45.7281 58.4104C47.6373 58.4104 49.185 59.9537 49.185 61.8577ZM52.6415 73.8745C54.8229 73.8745 56.5918 72.1104 56.5918 69.9342C56.5918 67.7584 54.8229 65.9943 52.6415 65.9943C50.4593 65.9943 48.6908 67.7584 48.6908 69.9342C48.6908 72.1104 50.4593 73.8745 52.6415 73.8745ZM41.5796 71.6097C41.5796 73.5137 40.0319 75.057 38.1228 75.057C36.2138 75.057 34.6661 73.5137 34.6661 71.6097C34.6661 69.7057 36.2138 68.162 38.1228 68.162C40.0319 68.162 41.5796 69.7057 41.5796 71.6097ZM29.925 81.7543C31.834 81.7543 33.3817 80.211 33.3817 78.3069C33.3817 76.4029 31.834 74.8592 29.925 74.8592C28.0158 74.8592 26.4681 76.4029 26.4681 78.3069C26.4681 80.211 28.0158 81.7543 29.925 81.7543ZM40.6902 86.4831C40.6902 88.6589 38.9213 90.423 36.7393 90.423C34.5576 90.423 32.7888 88.6589 32.7888 86.4831C32.7888 84.3069 34.5576 82.5432 36.7393 82.5432C38.9213 82.5432 40.6902 84.3069 40.6902 86.4831ZM54.9134 92C57.4774 92 59.5557 89.9273 59.5557 87.3705C59.5557 84.8136 57.4774 82.741 54.9134 82.741C52.3501 82.741 50.2715 84.8136 50.2715 87.3705C50.2715 89.9273 52.3501 92 54.9134 92ZM48.8879 79.7847C48.8879 81.9609 47.1194 83.725 44.9372 83.725C42.7554 83.725 40.9869 81.9609 40.9869 79.7847C40.9869 77.6089 42.7554 75.8448 44.9372 75.8448C47.1194 75.8448 48.8879 77.6089 48.8879 79.7847ZM62.518 82.1495C65.0816 82.1495 67.1599 80.0772 67.1599 77.52C67.1599 74.9635 65.0816 72.8908 62.518 72.8908C59.9544 72.8908 57.8761 74.9635 57.8761 77.52C57.8761 80.0772 59.9544 82.1495 62.518 82.1495ZM28.7399 70.3294C28.7399 71.9612 27.4135 73.2845 25.777 73.2845C24.1408 73.2845 22.8141 71.9612 22.8141 70.3294C22.8141 68.6972 24.1408 67.3743 25.777 67.3743C27.4135 67.3743 28.7399 68.6972 28.7399 70.3294Z" fill="black"/>
</svg>
