<?xml version="1.0" standalone="no"?>
<!DOCTYPE svg PUBLIC "-//W3C//DTD SVG 20010904//EN"
 "http://www.w3.org/TR/2001/REC-SVG-20010904/DTD/svg10.dtd">
<svg version="1.0" xmlns="http://www.w3.org/2000/svg"
 width="1182.000000pt" height="1182.000000pt" viewBox="0 0 1182.000000 1182.000000"
 preserveAspectRatio="xMidYMid meet">
<metadata>
Created by potrace 1.11, written by Peter Selinger 2001-2013
</metadata>
<g transform="translate(0.000000,1182.000000) scale(0.100000,-0.100000)"
fill="#000000" stroke="none">
<path d="M5618 10424 c-2 -2 -40 -6 -83 -9 -44 -3 -91 -7 -105 -10 -14 -2 -52
-6 -85 -10 -76 -8 -115 -13 -190 -27 -33 -5 -71 -12 -85 -14 -14 -3 -37 -7
-52 -10 -15 -3 -30 -5 -33 -5 -2 0 -19 -5 -37 -10 -18 -5 -46 -12 -61 -14 -61
-11 -259 -67 -387 -108 -464 -152 -895 -376 -1300 -677 -69 -51 -127 -96 -130
-99 -3 -3 -32 -28 -65 -56 -33 -27 -75 -63 -94 -80 -58 -50 -334 -327 -382
-381 -91 -105 -100 -116 -186 -224 -129 -161 -403 -582 -403 -618 0 -6 -3 -12
-7 -14 -8 -3 -102 -189 -146 -288 -59 -132 -69 -156 -71 -165 -1 -5 -10 -28
-20 -50 -18 -43 -125 -353 -131 -382 -2 -10 -17 -71 -34 -135 -17 -65 -33
-128 -35 -140 -17 -79 -57 -296 -60 -331 -3 -23 -7 -58 -10 -77 -25 -173 -30
-270 -30 -575 -1 -257 6 -422 18 -492 2 -10 7 -49 11 -88 4 -38 9 -79 11 -90
3 -11 7 -38 10 -60 15 -103 85 -429 101 -465 3 -8 8 -25 10 -36 4 -23 88 -285
102 -319 5 -11 18 -47 31 -80 23 -63 34 -89 69 -167 12 -26 21 -49 21 -52 0
-13 143 -292 207 -406 115 -202 326 -502 467 -665 34 -38 72 -83 86 -99 80
-95 381 -385 475 -457 17 -13 37 -30 45 -38 8 -7 57 -46 110 -85 52 -39 97
-74 100 -77 20 -24 412 -269 430 -269 5 0 10 -3 12 -8 3 -8 300 -159 363 -184
22 -9 58 -24 80 -34 22 -10 42 -18 45 -19 9 -3 45 -17 65 -25 57 -25 102 -42
120 -46 11 -2 29 -8 40 -13 37 -18 287 -93 355 -107 14 -2 39 -9 55 -14 17 -5
41 -12 55 -15 14 -2 45 -9 70 -15 25 -5 63 -12 85 -16 22 -3 56 -9 75 -14 19
-5 60 -12 90 -15 30 -4 62 -9 71 -10 8 -2 42 -6 75 -10 32 -4 73 -8 89 -10
232 -28 758 -25 977 5 37 6 88 12 115 15 26 3 59 7 73 10 14 3 54 10 90 16 36
5 81 14 100 19 19 5 49 11 65 13 180 29 723 205 866 282 14 8 29 12 33 8 3 -3
6 -1 6 5 0 7 5 12 11 12 12 0 211 98 304 150 105 58 119 66 185 107 79 48 253
165 260 174 3 3 14 11 25 17 16 8 36 3 103 -29 46 -21 89 -39 96 -39 6 0 16
-4 21 -9 8 -7 125 -60 450 -206 17 -7 65 -29 108 -49 43 -20 80 -36 82 -36 2
0 47 -20 99 -45 53 -25 98 -45 100 -45 2 0 37 -15 78 -34 111 -51 270 -123
367 -166 47 -21 115 -51 151 -67 36 -17 94 -43 130 -59 36 -15 68 -33 72 -39
5 -7 8 -6 8 1 0 12 -27 66 -104 209 -24 44 -57 105 -73 135 -16 30 -36 66 -45
80 -8 14 -38 68 -65 120 -28 52 -65 122 -83 155 -93 170 -151 277 -185 340
-21 39 -55 101 -77 138 -21 38 -38 72 -38 76 0 3 -11 23 -25 44 -14 20 -23 37
-20 37 4 0 -2 12 -12 28 -10 15 -32 52 -47 82 -16 30 -38 67 -48 83 -11 15
-17 27 -14 27 4 0 -4 17 -18 38 -13 20 -35 60 -49 88 -23 46 -24 53 -11 70 7
11 27 36 42 56 39 50 214 313 245 368 66 116 111 198 124 225 8 17 18 37 23
45 21 33 94 190 126 270 19 47 39 94 44 105 9 18 53 133 55 145 1 3 4 12 8 20
26 66 111 351 122 411 2 12 7 29 10 39 3 10 8 31 10 46 2 16 9 47 14 69 13 53
21 93 27 135 2 19 8 49 13 65 4 17 7 42 7 58 -1 15 1 27 4 27 3 0 6 10 7 23 1
29 13 145 18 177 24 141 24 685 1 900 -3 19 -7 62 -10 95 -4 33 -9 73 -12 90
-3 16 -7 44 -9 60 -4 30 -10 69 -20 115 -3 14 -8 41 -11 60 -3 19 -14 73 -26
120 -20 87 -26 110 -33 145 -3 11 -14 52 -25 90 -12 39 -23 77 -25 85 -21 86
-136 397 -190 515 -40 87 -151 311 -187 375 -119 218 -349 549 -503 726 -157
180 -353 377 -501 504 -35 30 -135 112 -149 122 -5 4 -44 34 -85 65 -94 73
-410 283 -426 283 -3 0 -19 10 -36 21 -28 20 -381 203 -403 209 -5 1 -35 14
-65 27 -30 14 -59 26 -65 27 -5 1 -27 10 -49 19 -21 9 -44 17 -50 17 -7 0 -16
4 -22 9 -9 8 -218 81 -239 82 -5 1 -17 5 -26 10 -13 6 -190 56 -269 74 -52 13
-252 54 -285 60 -71 12 -79 13 -130 20 -27 4 -61 8 -75 10 -14 2 -52 7 -85 10
-33 4 -82 9 -110 12 -56 6 -662 13 -667 7z"/>
</g>
</svg>
